# xmcd
#
# Track frame offsets: 
#        150
#        10545
#        20699
#        28637
#        37560
#        49905
#        59541
#        67868
#        77307
#        84896
#        91721
#        100946
#        110732
#        118250
#        131739
#        141317
#        150673
#        160358
#        170651
#        180839
#        189853
#        199925
#        206593
#        214709
#        224958
#
# Disc length: 3110 seconds
#
# Revision: 0
# Processed by: cddbd v1.5.2PL0 Copyright (c) Steve Scherf et al.
# Submitted via: ExactAudioCopy v1.0b1
#
DISCID=520c2419
DTITLE=Various Artist - Bluegrass Power Picks: 25 Traditional Classics
DYEAR=2012
DGENRE=Bluegrass
TTITLE0=Foggy Mountain Top
TTITLE1=Lonesome Road Blues
TTITLE2=Ain't Nobody Gonna Miss Me When I'm Gone
TTITLE3=Molly and Tenbrooks
TTITLE4=The Girl I left in Sunny Tennesse
TTITLE5=Wreck of the Old '97
TTITLE6=Little Maggie
TTITLE7=Weeping Willow
TTITLE8=Fly Around My Pretty Little Miss
TTITLE9=The Tie That Binds
TTITLE10=Pretty Polly
TTITLE11=Footprints in the Snow
TTITLE12=Roll on Buddy
TTITLE13=Little John Henry
TTITLE14=Salty Dog Blues
TTITLE15=Two Dollar Bill
TTITLE16=Cumberland Gap
TTITLE17=I'm a Man of Constant Sorrow
TTITLE18=Preacher and the Bear
TTITLE19=Take This Hammer
TTITLE20=Cotton Eye Joe
TTITLE21=Cripple Creek
TTITLE22=My Home's Across the Blue Ridge Mountains
TTITLE23=Katie Kline
TTITLE24=Little Birdie
EXTD=Rural Rythm Classics with\n\nHylo Brown and The Timberliners\n\nE
EXTD=arl Taylor and Jim McCall with The Stoney Mountain Boys\n\nRed Smil
EXTD=ey and The Bluegrass Cut-ups\n\nDon Reno and Bill Harrell with The Te
EXTD=nnesse Cut-Ups\n\nJim Greer and The Mac-O-Chee Valley Folks\n\nRed 
EXTD=White and His Dixie Bluegrass Band\n\nJ.E. Mainer and The Mountaineer
EXTD=s\n\nLog Cabin Boys\n\nMac Martin and The Dixie Traverlers
EXTT0=Earl Taylor and Jim McCall with The Stoney Mountain Boys
EXTT1=Hylo Brown and The Timberliners
EXTT2=Red Smiley and The Bluegrass Cut-ups
EXTT3=Don Reno and Bill Harrell with The Tennesse Cut-Ups
EXTT4=Jim Greer and The Mac-O-Chee Valley Folks
EXTT5=Earl Taylor and Jim McCall with The Stoney Mountain Boys
EXTT6=Red Smiley and The Bluegrass Cut-ups
EXTT7=Hylo Brown and The Timberliners
EXTT8=Red White and His Dixie Bluegrass Band
EXTT9=Jim Greer and The Mac-O-Chee Valley Folks
EXTT10=Earl Taylor and Jim McCall with The Stoney Mountain Boys
EXTT11=Don Reno and Bill Harrell
EXTT12=Red Smiley and The Bluegrass Cut-ups
EXTT13=Hylo Brown and The Timberliners
EXTT14=Red White and His Dixie Bluegrass Band
EXTT15=Earl Taylor and Jim McCall with The Stoney Mountain Boys
EXTT16=J.E. Mainer and The Mountaineers
EXTT17=Don Reno and Bill Harrell
EXTT18=Hylo Brown and The Timberliners
EXTT19=Red Smiley and The Bluegrass Cut-ups
EXTT20=Log Cabin Boys
EXTT21=Earl Taylor and Jim McCall with The Stoney Mountain Boys
EXTT22=Jim Greer and The Mac-O-Chee Valley Folks
EXTT23=Mac Martin and The Dixie Traverlers
EXTT24=Red Smiley and The Bluegrass Cut-ups
PLAYORDER=
